<?xml version="1.0" encoding="utf-8"?>
<!-- Generator: Adobe Illustrator 15.1.0, SVG Export Plug-In  -->
<!DOCTYPE svg PUBLIC "-//W3C//DTD SVG 1.1//EN" "http://www.w3.org/Graphics/SVG/1.1/DTD/svg11.dtd" [
	<!ENTITY ns_flows "http://ns.adobe.com/Flows/1.0/">
]>
<svg version="1.1"
	 xmlns="http://www.w3.org/2000/svg" xmlns:xlink="http://www.w3.org/1999/xlink" xmlns:a="http://ns.adobe.com/AdobeSVGViewerExtensions/3.0/"
	 x="0px" y="0px" width="313px" height="122px" viewBox="0 0 313 122" overflow="visible" enable-background="new 0 0 313 122"
	 xml:space="preserve">
<defs>
</defs>
<path d="M62.318,81.176H52.87l-8.508,27.814L35.15,81.057h-7.748l-9.212,27.934L9.683,81.176H0l14.024,41.369h7.864L31.16,95.67
	l9.271,26.875h7.863L62.318,81.176z M182.914,95.495v-0.117c0-8.391-5.928-14.201-15.729-14.201H150.41v41.076h9.035v-12.324h6.859
	C175.518,109.928,182.914,105,182.914,95.495 M173.758,95.67c0,3.52-2.641,6.219-7.158,6.219h-7.154V89.333h6.979
	c4.518,0,7.334,2.172,7.334,6.221V95.67z M313.125,122.252L295.52,80.883h-8.332l-17.604,41.369h9.213l3.758-9.215h17.367
	l3.756,9.215H313.125z M296.693,105.057h-10.914l5.455-13.318L296.693,105.057z"/>
<path fill="#B4965A" d="M107.578,89.159h-4.402v-3.424h4.402V89.159z M103.178,90.627h4.402v3.422h-4.402V90.627z M101.71,95.518
	h7.334V84.27h-7.334V95.518z"/>
<path fill="#B4965A" d="M123.717,89.159h-4.402v-3.424h4.402V89.159z M119.314,90.627h4.402v3.422h-4.402V90.627z M117.848,95.518
	h7.336V84.27h-7.336V95.518z"/>
<path fill="#B4965A" d="M91.441,89.159H87.04v-3.424h4.401V89.159z M87.04,90.627h4.401v3.422H87.04V90.627z M85.574,95.518h7.334
	V84.27h-7.334V95.518z"/>
<path fill="#B4965A" d="M107.578,70.577h-4.402v-3.422h4.402V70.577z M103.178,72.045h4.402v3.424h-4.402V72.045z M101.71,76.936
	h7.334V65.688h-7.334V76.936z"/>
<path fill="#B4965A" d="M123.717,70.577h-4.402v-3.422h4.402V70.577z M119.314,72.045h4.402v3.424h-4.402V72.045z M117.848,76.936
	h7.336V65.688h-7.336V76.936z"/>
<path fill="#B4965A" d="M91.441,70.577H87.04v-3.422h4.401V70.577z M87.04,72.045h4.401v3.424H87.04V72.045z M85.574,76.936h7.334
	V65.688h-7.334V76.936z"/>
<rect x="79.462" y="100.245" fill="#B4965A" width="5.378" height="1.469"/>
<rect x="87.527" y="100.245" fill="#B4965A" width="10.759" height="1.469"/>
<path fill="#B4965A" d="M76.771,103.18v-4.4h57.211v4.4H76.771z M131.295,120.784h-22.249v-13.201h1.956v11.736h22.98v1.465H131.295
	z M107.578,120.784h-4.402v-11.736h4.402V120.784z M101.71,120.784H76.771v-1.465h22.982v-11.736h1.956V120.784z M78.728,109.047
	h-1.956v-1.467h1.956V109.047z M78.728,111.983h-1.956v-1.467h1.956V111.983z M78.728,114.917h-1.956v-1.467h1.956V114.917z
	 M78.728,117.85h-1.956v-1.469h1.956V117.85z M98.288,117.85H80.195v-8.803h18.093V117.85z M132.027,110.516h1.955v1.467h-1.955
	V110.516z M132.027,113.45h1.955v1.467h-1.955V113.45z M132.027,116.383h1.955v1.469h-1.955V116.383z M130.561,117.85H112.47v-8.803
	h18.091V117.85z M133.982,109.047h-1.955v-1.467h1.955V109.047z M133.982,106.114H76.771v-1.465h57.211V106.114z M133.982,65.038
	h-2.688v1.469h2.688v1.467h-2.688v1.467h2.688v1.467h-2.688v1.467h2.688v1.467h-2.688v1.469h2.688v1.465h-2.688v1.469h2.688v1.465
	h-2.688v1.469h2.688v1.467h-2.688v1.467h2.688v1.467h-2.688v1.467h2.688v1.467h-2.688v1.469h2.688v1.465h-2.688v1.469h2.688v1.465
	h-2.688v1.469h2.688v1.467H76.771v-1.467h2.69v-1.469h-2.69v-1.465h2.69v-1.469h-2.69v-1.465h2.69V88.51h-2.69v-1.467h2.69v-1.467
	h-2.69V84.11h2.69v-1.467h-2.69v-1.467h2.69v-1.469h-2.69v-1.465h2.69v-1.469h-2.69v-1.465h2.69V73.84h-2.69v-1.467h2.69v-1.467
	h-2.69V69.44h2.69v-1.467h-2.69v-1.467h2.69v-1.469h-2.69v-1.465h57.211V65.038z M133.982,60.639v1.465H76.771v-1.465H133.982z
	 M75.304,59.17v63.082h60.147V59.17H75.304z"/>
<path fill="#B4965A" d="M197.797,3.426V1.958h57.213v1.469H197.797z M255.01,22.987h-2.199V4.895h2.199V22.987z M255.01,25.92
	h-2.199v-1.467h2.199V25.92z M255.01,42.545h-2.199V27.389h2.199V42.545z M255.01,45.481h-2.199v-1.467h2.199V45.481z
	 M255.01,62.106h-2.199V46.948h2.199V62.106z M255.01,65.038h-2.199v-1.465h2.199V65.038z M255.01,81.665h-2.199V66.506h2.199
	V81.665z M255.01,84.598h-2.199v-1.467h2.199V84.598z M255.01,101.225h-2.199V86.067h2.199V101.225z M249.143,86.067h2.199v15.158
	h-2.199V86.067z M247.674,120.784h-5.867v-18.092h5.867V120.784z M238.139,104.159h2.199v16.625h-2.199V104.159z M233.006,120.784
	v-13.691h-5.869h-1.467h-5.867v13.691h-3.668v-16.625h20.539v16.625H233.006z M227.137,108.561h4.4v12.223h-4.4V108.561z
	 M221.27,108.561h4.4v12.223h-4.4V108.561z M212.467,104.159h2.199v16.625h-2.199V104.159z M205.133,120.784v-18.092h5.869v18.092
	H205.133z M201.465,86.067h2.201v15.158h-2.201V86.067z M197.797,86.067h2.201v15.158h-2.201V86.067z M197.797,83.131h2.201v1.467
	h-2.201V83.131z M197.797,66.506h2.201v15.158h-2.201V66.506z M197.797,63.573h2.201v1.465h-2.201V63.573z M197.797,46.946h2.201
	v15.158h-2.201V46.946z M197.797,44.012h2.201v1.467h-2.201V44.012z M197.797,27.385h2.201v15.158h-2.201V27.385z M197.797,24.452
	h2.201v1.467h-2.201V24.452z M203.666,22.987h-2.201V4.895h2.201V22.987z M207.334,22.987h-2.201V4.895h2.201V22.987z
	 M211.002,22.987h-2.201V4.895h2.201V22.987z M214.67,22.987h-2.201V4.895h2.201V22.987z M218.334,22.987h-2.199V4.895h2.199V22.987
	z M222.002,22.987h-2.199V4.895h2.199V22.987z M225.67,22.987h-2.199V4.895h2.199V22.987z M229.338,22.987h-2.201V4.895h2.201
	V22.987z M233.006,22.987h-2.201V4.895h2.201V22.987z M236.674,22.987h-2.201V4.895h2.201V22.987z M240.342,22.987h-2.201V4.895
	h2.201V22.987z M244.006,22.987h-2.199V4.895h2.199V22.987z M247.674,22.987h-2.199V4.895h2.199V22.987z M249.143,4.893h2.199
	v18.092h-2.199V4.893z M249.143,24.452h2.199v1.467h-2.199V24.452z M249.143,27.385h2.199v15.158h-2.199V27.385z M249.143,44.012
	h2.199v1.467h-2.199V44.012z M249.143,46.946h2.199v15.158h-2.199V46.946z M249.143,63.573h2.199v1.465h-2.199V63.573z
	 M249.143,66.506h2.199v15.158h-2.199V66.506z M249.143,83.131h2.199v1.467h-2.199V83.131z M245.475,83.131h2.199v1.467h-2.199
	V83.131z M245.475,86.067h2.199v15.158h-2.199V86.067z M241.807,86.067h2.199v15.158h-2.199V86.067z M238.139,86.067h2.199v15.158
	h-2.199V86.067z M208.801,86.067h2.201v15.158h-2.201V86.067z M205.133,83.131h2.201v1.467h-2.201V83.131z M203.666,84.598h-2.201
	v-1.467h2.201V84.598z M203.666,81.665h-2.201V66.506h2.201V81.665z M203.666,65.038h-2.201v-1.465h2.201V65.038z M203.666,62.106
	h-2.201V46.948h2.201V62.106z M203.666,45.481h-2.201v-1.467h2.201V45.481z M203.666,42.545h-2.201V27.389h2.201V42.545z
	 M203.666,25.92h-2.201v-1.467h2.201V25.92z M207.334,25.92h-2.201v-1.467h2.201V25.92z M211.002,25.92h-2.201v-1.467h2.201V25.92z
	 M214.67,25.92h-2.201v-1.467h2.201V25.92z M218.334,25.92h-2.199v-1.467h2.199V25.92z M222.002,25.92h-2.199v-1.467h2.199V25.92z
	 M225.67,25.92h-2.199v-1.467h2.199V25.92z M229.338,25.92h-2.201v-1.467h2.201V25.92z M233.006,25.92h-2.201v-1.467h2.201V25.92z
	 M236.674,25.92h-2.201v-1.467h2.201V25.92z M240.342,25.92h-2.201v-1.467h2.201V25.92z M244.006,25.92h-2.199v-1.467h2.199V25.92z
	 M245.475,24.452h2.199v1.467h-2.199V24.452z M245.475,27.385h2.199v15.158h-2.199V27.385z M245.475,44.012h2.199v1.467h-2.199
	V44.012z M245.475,46.946h2.199v15.158h-2.199V46.946z M245.475,63.573h2.199v1.465h-2.199V63.573z M245.475,66.506h2.199v15.158
	h-2.199V66.506z M241.807,66.506h2.199v15.158h-2.199V66.506z M241.807,83.131h2.199v1.467h-2.199V83.131z M238.139,83.131h2.199
	v1.467h-2.199V83.131z M234.473,83.131h2.201v1.467h-2.201V83.131z M234.473,86.067h2.201v15.158h-2.201V86.067z M230.805,86.067
	h2.201v15.158h-2.201V86.067z M227.137,86.067h2.201v15.158h-2.201V86.067z M223.471,86.067h2.199v15.158h-2.199V86.067z
	 M219.803,86.067h2.199v15.158h-2.199V86.067z M216.135,86.067h2.199v15.158h-2.199V86.067z M214.67,101.225h-2.201V86.067h2.201
	V101.225z M212.467,83.131h2.199v1.467h-2.199V83.131z M211.002,84.598h-2.201v-1.467h2.201V84.598z M208.801,66.506h2.201v15.158
	h-2.201V66.506z M207.334,81.665h-2.201V66.506h2.201V81.665z M207.334,65.038h-2.201v-1.465h2.201V65.038z M207.334,62.106h-2.201
	V46.948h2.201V62.106z M207.334,45.481h-2.201v-1.467h2.201V45.481z M207.334,42.545h-2.201V27.389h2.201V42.545z M211.002,42.545
	h-2.201V27.389h2.201V42.545z M214.67,42.545h-2.201V27.389h2.201V42.545z M218.334,42.545h-2.199V27.389h2.199V42.545z
	 M222.002,42.545h-2.199V27.389h2.199V42.545z M225.67,42.545h-2.199V27.389h2.199V42.545z M229.338,42.545h-2.201V27.389h2.201
	V42.545z M233.006,42.545h-2.201V27.389h2.201V42.545z M236.674,42.545h-2.201V27.389h2.201V42.545z M240.342,42.545h-2.201V27.389
	h2.201V42.545z M241.807,27.385h2.199v15.158h-2.199V27.385z M241.807,44.012h2.199v1.467h-2.199V44.012z M241.807,46.946h2.199
	v15.158h-2.199V46.946z M241.807,63.573h2.199v1.465h-2.199V63.573z M238.139,63.573h2.199v1.465h-2.199V63.573z M238.139,66.506
	h2.199v15.158h-2.199V66.506z M234.473,66.506h2.201v15.158h-2.201V66.506z M230.805,66.506h2.201v15.158h-2.201V66.506z
	 M230.805,83.131h2.201v1.467h-2.201V83.131z M227.137,83.131h2.201v1.467h-2.201V83.131z M223.471,83.131h2.199v1.467h-2.199
	V83.131z M219.803,83.131h2.199v1.467h-2.199V83.131z M218.334,84.598h-2.199v-1.467h2.199V84.598z M216.135,66.506h2.199v15.158
	h-2.199V66.506z M214.67,81.665h-2.201V66.506h2.201V81.665z M212.467,63.573h2.199v1.465h-2.199V63.573z M211.002,65.038h-2.201
	v-1.465h2.201V65.038z M211.002,62.106h-2.201V46.948h2.201V62.106z M211.002,45.481h-2.201v-1.467h2.201V45.481z M214.67,45.481
	h-2.201v-1.467h2.201V45.481z M218.334,45.481h-2.199v-1.467h2.199V45.481z M222.002,45.481h-2.199v-1.467h2.199V45.481z
	 M225.67,45.481h-2.199v-1.467h2.199V45.481z M229.338,45.481h-2.201v-1.467h2.201V45.481z M233.006,45.481h-2.201v-1.467h2.201
	V45.481z M236.674,45.481h-2.201v-1.467h2.201V45.481z M238.139,44.012h2.199v1.467h-2.199V44.012z M238.139,46.946h2.199v15.158
	h-2.199V46.946z M234.473,46.946h2.201v15.158h-2.201V46.946z M234.473,63.573h2.201v1.465h-2.201V63.573z M230.805,63.573h2.201
	v1.465h-2.201V63.573z M227.137,63.573h2.201v1.465h-2.201V63.573z M227.137,66.506h2.201v15.158h-2.201V66.506z M223.471,66.506
	h2.199v15.158h-2.199V66.506z M222.002,81.665h-2.199V66.506h2.199V81.665z M219.803,63.573h2.199v1.465h-2.199V63.573z
	 M218.334,65.038h-2.199v-1.465h2.199V65.038z M222.002,62.106h-2.199V46.948h2.199V62.106z M225.67,65.038h-2.199v-1.465h2.199
	V65.038z M225.67,62.106h-2.199V46.948h2.199V62.106z M230.805,46.946h2.201v15.158h-2.201V46.946z M229.338,62.106h-2.201V46.948
	h2.201V62.106z M214.67,62.106h-2.201V46.948h2.201V62.106z M216.135,46.946h2.199v15.158h-2.199V46.946z M205.133,86.067h2.201
	v15.158h-2.201V86.067z M197.797,4.893h2.201v18.092h-2.201V4.893z M196.33,0.493v22.494v1.465v1.469v1.465v15.16v1.467v1.469v1.465
	v15.16v1.467v1.465v1.469v15.158v1.467v1.467v1.469v16.625h7.336v18.092h-7.336v1.469h60.146v-1.469h-7.334v-18.092h7.334V86.067
	v-1.469v-1.467v-1.467V66.506v-1.469v-1.465v-1.467v-15.16v-1.465v-1.469v-1.467v-15.16V25.92v-1.469v-1.465V4.893V3.426V0.493
	H196.33z"/>
<path display="none" d="M62.318,81.176H52.87l-8.508,27.814L35.15,81.057h-7.748l-9.212,27.934L9.683,81.176H0l14.024,41.369h7.864
	L31.16,95.67l9.271,26.875h7.863L62.318,81.176z M182.914,95.495v-0.117c0-8.391-5.928-14.201-15.729-14.201H150.41v41.076h9.035
	v-12.324h6.859C175.518,109.928,182.914,105,182.914,95.495 M173.758,95.67c0,3.52-2.641,6.219-7.158,6.219h-7.154V89.333h6.979
	c4.518,0,7.334,2.172,7.334,6.221V95.67z M313.125,122.252L295.52,80.883h-8.332l-17.604,41.369h9.213l3.758-9.215h17.367
	l3.756,9.215H313.125z M296.693,105.057h-10.914l5.455-13.318L296.693,105.057z"/>
<rect x="222.408" y="37.295" display="none" fill="#B4965A" width="1.469" height="2.992"/>
<rect x="219.15" y="37.295" display="none" fill="#B4965A" width="1.467" height="2.992"/>
<rect x="212.627" y="37.295" display="none" fill="#B4965A" width="1.469" height="2.992"/>
<rect x="209.369" y="37.295" display="none" fill="#B4965A" width="1.469" height="2.992"/>
<rect x="202.848" y="37.295" display="none" fill="#B4965A" width="1.467" height="2.992"/>
<rect x="199.588" y="37.295" display="none" fill="#B4965A" width="1.469" height="2.992"/>
<path display="none" fill="#B4965A" d="M210.543,93.641h2.385v4.402h-2.385V93.641z M212.928,92.174h-2.385v-4.012h2.385V92.174z
	 M214.393,86.946l-2.658-1.141l-2.66,1.141V99.51h5.318V86.946z"/>
<path display="none" fill="#B4965A" d="M218.609,93.641h2.385v4.402h-2.385V93.641z M220.994,92.174h-2.385v-4.012h2.385V92.174z
	 M222.461,86.946l-2.658-1.141l-2.66,1.141V99.51h5.318V86.946z"/>
<path display="none" fill="#B4965A" d="M218.609,110.782h2.385v1.758h-2.385V110.782z M220.994,109.317h-2.385v-1.541h2.385V109.317
	z M217.143,106.461v7.547h5.318v-7.547l-2.66-0.627L217.143,106.461z"/>
<path display="none" fill="#B4965A" d="M210.543,74.083h2.385v4.4h-2.385V74.083z M212.928,72.614h-2.385v-4.012h2.385V72.614z
	 M214.393,67.385l-2.658-1.139l-2.66,1.139V79.95h5.318V67.385z"/>
<path display="none" fill="#B4965A" d="M202.471,74.083h2.387v4.4h-2.387V74.083z M204.857,72.614h-2.383v-4.012h2.383V72.614z
	 M206.324,67.385l-2.658-1.139l-2.66,1.139V79.95h5.318V67.385z"/>
<path display="none" fill="#B4965A" d="M218.609,74.083h2.385v4.4h-2.385V74.083z M220.994,72.614h-2.385v-4.012h2.385V72.614z
	 M222.461,67.385l-2.658-1.139l-2.66,1.139V79.95h5.318V67.385z"/>
<path display="none" fill="#B4965A" d="M210.543,54.521h2.385v4.402h-2.385V54.521z M212.928,53.053h-2.385v-4.012h2.385V53.053z
	 M214.393,47.826l-2.658-1.141l-2.66,1.141v12.562h5.318V47.826z"/>
<path display="none" fill="#B4965A" d="M202.471,54.521h2.387v4.402h-2.387V54.521z M204.857,53.053h-2.383v-4.012h2.383V53.053z
	 M206.324,47.826l-2.658-1.141l-2.66,1.141v12.562h5.318V47.826z"/>
<path display="none" fill="#B4965A" d="M218.609,54.521h2.385v4.402h-2.385V54.521z M220.994,53.053h-2.385v-4.012h2.385V53.053z
	 M222.461,47.826l-2.658-1.141l-2.66,1.141v12.562h5.318V47.826z"/>
<path display="none" fill="#B4965A" d="M255.01,120.786h-1.223v-4.768h-1.469v4.768H251.1v-4.768h-1.469v4.768h-1.223v-4.768h-1.465
	v4.768h-1.225v-4.768h-1.469v4.768h-1.221v-4.768h-1.467v4.768h-1.223v-4.123v-0.645v-0.734v-0.088v-1.326v-1.467v-1.33v-1.467
	v-1.324v-1.469v-1.328v-1.326h14.67v11.859V120.786z M237.559,119.459v-1.469v-1.242h1.314v4.037h-1.314V119.459z M229.918,119.459
	h6.174v1.326h-6.174V119.459z M227.137,120.786v-4.037h1.314v1.242v1.469v1.326H227.137z M224.447,120.786v-4.768h-1.469v4.768
	h-1.221v-4.768h-1.467v4.768h-1.223v-4.768h-1.465v4.768h-1.227v-4.768h-1.467v4.768h-1.221v-4.768h-1.467v4.768H211v-4.123v-0.645
	v-0.734v-0.088v-1.326v-1.467v-1.33v-1.467v-1.324v-1.469v-1.328v-1.326h14.67v1.326v1.328v1.469v1.324v1.467v1.33v1.467v1.326
	v0.088v0.734v0.645v4.123H224.447z M208.219,119.459v-1.469v-1.242h1.314v4.037h-1.314V119.459z M200.578,119.459h6.174v1.326
	h-6.174V119.459z M197.795,120.786v-4.037h1.316v1.242v1.469v1.326H197.795z M206.752,117.991h-6.174v-1.33h6.174V117.991z
	 M197.795,113.87h11.738v1.326h-11.738V113.87z M197.795,111.073h11.738v1.33h-11.738V111.073z M197.795,108.282h11.738v1.326
	h-11.738V108.282z M197.795,105.485h11.738v1.328h-11.738V105.485z M197.795,102.692h2.145h7.453h2.141v1.328h-11.738V102.692z
	 M201.406,88.163h4.521v13.062h-4.521V88.163z M201.406,85.229h4.521v1.467h-4.521V85.229z M225.67,101.225H211h-3.607V83.999
	l-3.729-1.494l-3.725,1.494v17.227h-2.145V44.01h27.875V101.225z M236.732,102.692h2.141v1.328h-11.736v-1.328h2.143H236.732z
	 M230.746,88.163h4.521v13.062h-4.521V88.163z M230.746,85.229h4.521v1.467h-4.521V85.229z M227.137,105.485h11.736v1.328h-11.736
	V105.485z M227.137,108.282h11.736v1.326h-11.736V108.282z M227.137,111.073h11.736v1.33h-11.736V111.073z M227.137,113.87h11.736
	v1.326h-11.736V113.87z M236.092,117.991h-6.174v-1.33h6.174V117.991z M227.137,37.295V24.451h27.873v76.774h-14.67h-3.607V83.999
	l-3.729-1.494l-3.725,1.494v17.227h-2.143V43.277v-0.732V37.295z M255.01,17.734v5.25h-8.316v-5.25h-1.465v5.25h-8.312v-5.25h-1.465
	v5.25h-8.314v-5.25h-1.467v5.25v0.732v13.578v5.25h-8.312v-5.25h-1.469v5.25h-8.312v-5.25h-1.465v5.25h-8.316v-5.25h-1.465v5.25
	v0.732v57.948v1.467v1.328v1.465v1.328v1.469v1.324v1.467v1.33v1.467v1.326v0.088v1.379v4.123v1.465h4.248h6.174H211h14.67h1.467
	h2.781h6.174h4.248h16.137v-0.732v-5.5V23.717v-0.732v-5.25H255.01z"/>
<rect x="251.748" y="17.734" display="none" fill="#B4965A" width="1.465" height="2.992"/>
<rect x="248.49" y="17.734" display="none" fill="#B4965A" width="1.465" height="2.992"/>
<rect x="241.967" y="17.734" display="none" fill="#B4965A" width="1.469" height="2.992"/>
<rect x="238.709" y="17.734" display="none" fill="#B4965A" width="1.469" height="2.992"/>
<rect x="232.188" y="17.734" display="none" fill="#B4965A" width="1.467" height="2.992"/>
<rect x="228.928" y="17.734" display="none" fill="#B4965A" width="1.469" height="2.992"/>
<path display="none" fill="#B4965A" d="M239.881,93.641h2.383v4.402h-2.383V93.641z M242.268,92.174h-2.385v-4.012h2.385V92.174z
	 M243.732,86.946l-2.658-1.141l-2.658,1.141V99.51h5.316V86.946z"/>
<path display="none" fill="#B4965A" d="M247.951,93.641h2.383v4.402h-2.383V93.641z M250.334,92.174h-2.383v-4.012h2.383V92.174z
	 M251.801,86.946l-2.658-1.141l-2.66,1.141V99.51h5.318V86.946z"/>
<path display="none" fill="#B4965A" d="M247.951,110.782h2.383v1.758h-2.383V110.782z M250.334,109.317h-2.383v-1.541h2.383V109.317
	z M246.482,106.461v7.547h5.318v-7.547l-2.66-0.627L246.482,106.461z"/>
<path display="none" fill="#B4965A" d="M239.881,74.083h2.383v4.4h-2.383V74.083z M242.268,72.614h-2.385v-4.012h2.385V72.614z
	 M243.732,67.385l-2.658-1.139l-2.658,1.139V79.95h5.316V67.385z"/>
<path display="none" fill="#B4965A" d="M231.812,74.083h2.385v4.4h-2.385V74.083z M234.197,72.614h-2.385v-4.012h2.385V72.614z
	 M235.664,67.385l-2.658-1.139l-2.66,1.139V79.95h5.318V67.385z"/>
<path display="none" fill="#B4965A" d="M247.951,74.083h2.383v4.4h-2.383V74.083z M250.334,72.614h-2.383v-4.012h2.383V72.614z
	 M251.801,67.385l-2.658-1.139l-2.66,1.139V79.95h5.318V67.385z"/>
<path display="none" fill="#B4965A" d="M239.881,54.521h2.383v4.402h-2.383V54.521z M242.268,53.053h-2.385v-4.012h2.385V53.053z
	 M243.732,47.826l-2.658-1.141l-2.658,1.141v12.562h5.316V47.826z"/>
<path display="none" fill="#B4965A" d="M231.812,54.521h2.385v4.402h-2.385V54.521z M234.197,53.053h-2.385v-4.012h2.385V53.053z
	 M235.664,47.826l-2.658-1.141l-2.66,1.141v12.562h5.318V47.826z"/>
<path display="none" fill="#B4965A" d="M247.951,54.521h2.383v4.402h-2.383V54.521z M250.334,53.053h-2.383v-4.012h2.383V53.053z
	 M251.801,47.826l-2.658-1.141l-2.66,1.141v12.562h5.318V47.826z"/>
<path display="none" fill="#B4965A" d="M239.881,34.961h2.383v4.402h-2.383V34.961z M242.268,33.494h-2.385V29.48h2.385V33.494z
	 M243.732,28.266l-2.658-1.141l-2.658,1.141V40.83h5.316V28.266z"/>
<path display="none" fill="#B4965A" d="M231.812,34.961h2.385v4.402h-2.385V34.961z M234.197,33.494h-2.385V29.48h2.385V33.494z
	 M235.664,28.266l-2.658-1.141l-2.66,1.141V40.83h5.318V28.266z"/>
<path display="none" fill="#B4965A" d="M247.951,34.961h2.383v4.402h-2.383V34.961z M250.334,33.494h-2.383V29.48h2.383V33.494z
	 M251.801,28.266l-2.658-1.141l-2.66,1.141V40.83h5.318V28.266z"/>
<path display="none" fill="#B4965A" d="M127.413,111.981h-4.402v-3.424h4.402V111.981z M123.011,113.45h4.402v3.422h-4.402V113.45z
	 M121.545,118.34h7.336v-11.248h-7.336V118.34z"/>
<path display="none" fill="#B4965A" d="M117.083,111.981h-4.402v-3.424h4.402V111.981z M112.681,113.45h4.402v3.422h-4.402V113.45z
	 M111.215,118.34h7.334v-11.248h-7.334V118.34z"/>
<path display="none" fill="#B4965A" d="M98.073,111.981h-4.402v-3.424h4.402V111.981z M93.671,113.45h4.402v3.422h-4.402V113.45z
	 M92.205,118.34h7.336v-11.248h-7.336V118.34z"/>
<path display="none" fill="#B4965A" d="M85.572,94.104h4.402v4.033h-4.402V94.104z M89.975,88.366v4.27h-4.402v-4.27
	C87.002,87.872,88.542,87.872,89.975,88.366 M91.44,87.374l-0.448-0.189c-2.072-0.871-4.368-0.871-6.438,0l-0.448,0.189v12.23h7.334
	V87.374z"/>
<path display="none" fill="#B4965A" d="M120.78,94.104h4.402v4.033h-4.402V94.104z M125.183,88.366v4.27h-4.402v-4.27
	C122.21,87.872,123.75,87.872,125.183,88.366 M126.648,87.374l-0.448-0.189c-2.072-0.871-4.368-0.871-6.438,0l-0.45,0.189v12.23
	h7.336V87.374z"/>
<path display="none" fill="#B4965A" d="M97.308,94.102h1.468v4.035h-1.468V94.102z M101.709,88.364v4.273h-4.401v-4.273
	C98.739,87.872,100.279,87.872,101.709,88.364 M101.707,98.137h-1.466v-4.035h1.466V98.137z M104.644,98.137h-1.466v-4.035h1.466
	V98.137z M97.308,74.542h1.468v4.035h-1.468V74.542z M101.709,68.805v4.271h-4.401v-4.271
	C98.739,68.313,100.279,68.313,101.709,68.805 M104.644,78.577h-1.466v-4.035h1.466V78.577z M97.308,54.982h1.468v4.033h-1.468
	V54.982z M101.709,49.244v4.271h-4.401v-4.271C98.739,48.752,100.279,48.752,101.709,49.244 M104.644,59.016h-1.466v-4.033h1.466
	V59.016z M97.308,35.422h1.468v4.033h-1.468V35.422z M101.709,29.684v4.271h-4.401v-4.271
	C98.739,29.191,100.279,29.191,101.709,29.684 M104.644,39.455h-1.466v-4.033h1.466V39.455z M113.445,29.684v4.271h-4.402v-4.271
	C110.476,29.191,112.016,29.191,113.445,29.684 M113.445,39.455h-1.468v-4.033h1.468V39.455z M109.043,35.422h1.467v4.033h-1.467
	V35.422z M106.109,35.422h1.468v4.033h-1.468V35.422z M101.707,39.455h-1.466v-4.033h1.466V39.455z M113.445,49.244v4.271h-4.402
	v-4.271C110.476,48.752,112.016,48.752,113.445,49.244 M113.445,59.016h-1.468v-4.033h1.468V59.016z M109.043,54.982h1.467v4.033
	h-1.467V54.982z M106.109,54.982h1.468v4.033h-1.468V54.982z M101.707,59.016h-1.466v-4.033h1.466V59.016z M113.445,68.805v4.271
	h-4.402v-4.271C110.476,68.313,112.016,68.313,113.445,68.805 M113.445,78.577h-1.468v-4.035h1.468V78.577z M109.043,74.542h1.467
	v4.035h-1.467V74.542z M106.109,74.542h1.468v4.035h-1.468V74.542z M101.707,78.577h-1.466v-4.035h1.466V78.577z M113.445,88.364
	v4.273h-4.402v-4.273C110.476,87.872,112.016,87.872,113.445,88.364 M113.445,98.137h-1.468v-4.035h1.468V98.137z M109.043,94.102
	h1.467v4.035h-1.467V94.102z M106.109,94.102h1.468v4.035h-1.468V94.102z M107.577,99.604h7.334V98.87v-5.5v-0.732v-5.264
	l-0.447-0.189c-2.07-0.869-4.366-0.869-6.438,0l-0.448,0.189v2.334l-4.034-9.664h4.034h7.334v-0.732v-5.5v-0.734v-5.262
	l-0.447-0.191c-2.07-0.869-4.366-0.869-6.438,0l-0.448,0.191v2.334l-4.034-9.665h4.034h7.334V59.75v-5.5v-0.734v-5.262l-0.447-0.189
	c-2.07-0.871-4.366-0.871-6.438,0l-0.448,0.189v2.334l-4.034-9.664h4.034h7.334v-0.734v-5.5v-0.734v-5.262l-0.447-0.189
	c-2.07-0.869-4.366-0.869-6.438,0l-0.448,0.189v5.262h-4.401v-5.262l-0.448-0.189c-2.07-0.869-4.366-0.869-6.438,0l-0.447,0.189
	v5.262v0.734v5.5v0.734h6.111l5.256,12.592h-4.033v-5.262l-0.448-0.189c-2.07-0.871-4.366-0.871-6.438,0l-0.447,0.189v5.262v0.734
	v5.5v0.734h6.111l5.256,12.592h-4.033v-5.262l-0.448-0.191c-2.07-0.869-4.366-0.869-6.438,0l-0.447,0.191v5.262v0.734v5.5v0.732
	h6.111l5.256,12.594h-4.033v-5.264l-0.448-0.189c-2.07-0.869-4.366-0.869-6.438,0l-0.447,0.189v5.264v0.732v5.5v0.734h7.334H107.577
	z"/>
<path display="none" fill="#B4965A" d="M85.572,74.543h4.402v4.035h-4.402V74.543z M89.975,68.805v4.271h-4.402v-4.271
	C87.002,68.311,88.542,68.311,89.975,68.805 M91.44,67.813l-0.448-0.189c-2.072-0.869-4.368-0.869-6.438,0l-0.448,0.189v12.23h7.334
	V67.813z"/>
<path display="none" fill="#B4965A" d="M120.78,74.543h4.402v4.035h-4.402V74.543z M125.183,68.805v4.271h-4.402v-4.271
	C122.21,68.311,123.75,68.311,125.183,68.805 M126.648,67.813l-0.448-0.189c-2.072-0.869-4.368-0.869-6.438,0l-0.45,0.189v12.23
	h7.336V67.813z"/>
<path display="none" fill="#B4965A" d="M85.572,54.982h4.402v4.035h-4.402V54.982z M89.975,49.246v4.27h-4.402v-4.27
	C87.002,48.752,88.542,48.752,89.975,49.246 M91.44,48.254l-0.448-0.191c-2.072-0.869-4.368-0.869-6.438,0l-0.448,0.191v12.229
	h7.334V48.254z"/>
<path display="none" fill="#B4965A" d="M120.78,54.982h4.402v4.035h-4.402V54.982z M125.183,49.246v4.27h-4.402v-4.27
	C122.21,48.752,123.75,48.752,125.183,49.246 M126.648,48.254l-0.448-0.191c-2.072-0.869-4.368-0.869-6.438,0l-0.45,0.191v12.229
	h7.336V48.254z"/>
<path display="none" fill="#B4965A" d="M85.572,35.424h4.402v4.033h-4.402V35.424z M89.975,29.686v4.27h-4.402v-4.27
	C87.002,29.191,88.542,29.191,89.975,29.686 M91.44,28.693l-0.448-0.189c-2.072-0.871-4.368-0.871-6.438,0l-0.448,0.189v12.23h7.334
	V28.693z"/>
<path display="none" fill="#B4965A" d="M120.78,35.424h4.402v4.033h-4.402V35.424z M125.183,29.686v4.27h-4.402v-4.27
	C122.21,29.191,123.75,29.191,125.183,29.686 M126.648,28.693l-0.448-0.189c-2.072-0.871-4.368-0.871-6.438,0l-0.45,0.189v12.23
	h7.336V28.693z"/>
<path display="none" fill="#B4965A" d="M125.674,21.459h8.31v1.523h-8.31V21.459z M133.983,101.225h-24.94h-1.466h-4.401h-1.467
	H76.77V24.451h57.214V101.225z M109.043,120.786v-12.227v-1.467v-2.934h24.94v16.627H109.043z M107.577,120.786h-4.401v-12.227
	h4.401V120.786z M101.709,120.786h-12.5v-13.693h-7.336v13.693H76.77v-16.627h24.939v2.934v1.467V120.786z M83.342,108.559h4.401
	v12.227h-4.401V108.559z M103.176,104.159h4.401v2.934h-4.401V104.159z M76.77,21.459h8.313v1.523H76.77V21.459z M94.867,22.984
	h-8.313v-1.523h8.313V22.984z M104.647,22.984h-8.314v-1.523h8.314V22.984z M114.426,22.984h-8.312v-1.523h8.312V22.984z
	 M124.207,22.984h-8.315v-1.523h8.315V22.984z M115.892,17.734v-2.77h8.315v2.77v2.258h-1.796v-2.258h-1.466v2.258h-1.792v-2.258
	h-1.468v2.258h-1.794V17.734z M122.678,3.717h-5.256l2.628-1.906L122.678,3.717z M115.892,11.705h8.315v1.793h-8.315V11.705z
	 M115.892,8.443h8.315v1.793h-8.315V8.443z M124.207,6.977h-8.315V5.184h8.315V6.977z M133.983,17.734v2.258h-1.794v-2.258h-1.466
	v2.258h-1.79v-2.258h-1.468v2.258h-1.792v-2.258v-2.77v-7.09V4.074L120.05,0l-5.624,4.074v3.801v7.09v2.77v2.258h-1.794v-2.258
	h-1.467v2.258h-1.792v-2.258h-1.468v2.258h-1.792v-2.258h-1.466v2.258h-1.796v-2.258h-1.466v2.258h-1.792v-2.258h-1.469v2.258
	h-1.792v-2.258h-1.466v2.258h-1.796v-2.258h-1.466v2.258h-1.792v-2.258h-1.468v2.258h-1.794v-2.258h-1.467v2.258h-1.794v-2.258
	h-1.466v2.258h-1.794v-2.258h-1.468v2.258H76.77v-2.258h-1.466v2.258v0.734v2.258v1.467v76.774v1.467v19.559h6.569h7.336h12.5h1.467
	h4.401h1.466h26.406v-19.559v-1.467V24.451v-1.467v-2.258v-0.734v-2.258H133.983z"/>
</svg>
